<svg width="33" height="33" viewBox="0 0 33 33" fill="none" xmlns="http://www.w3.org/2000/svg">
<path d="M16.5 32C25.0603 32 32 25.0603 32 16.5C32 7.93958 25.0603 1 16.5 1C7.93958 1 1 7.93958 1 16.5C1 25.0603 7.93958 32 16.5 32Z" stroke="white" stroke-width="2" stroke-linecap="round" stroke-linejoin="round"/>
<path d="M21.15 11.0748C20.0882 10.0131 18.2185 9.27456 16.5 9.22832M16.5 9.22832C14.4554 9.1733 12.625 10.0983 12.625 12.6248C12.625 17.2748 21.15 14.9498 21.15 19.5998C21.15 22.2519 18.8811 23.3914 16.5 23.3059M16.5 9.22832V6.4248M11.85 21.1498C12.8489 22.4817 14.7063 23.2414 16.5 23.3059M16.5 23.3059V26.5748" stroke="white" stroke-width="2" stroke-linecap="round" stroke-linejoin="round"/>
</svg>
